<?xml version="1.0" standalone="no"?>
<!DOCTYPE svg PUBLIC "-//W3C//DTD SVG 20010904//EN"
 "http://www.w3.org/TR/2001/REC-SVG-20010904/DTD/svg10.dtd">
<svg version="1.0" xmlns="http://www.w3.org/2000/svg"
 width="127.000000pt" height="127.000000pt" viewBox="0 0 127.000000 127.000000"
 preserveAspectRatio="xMidYMid meet">
<metadata>
Created by potrace 1.11, written by Peter Selinger 2001-2013
</metadata>
<g transform="translate(0.000000,127.000000) scale(0.100000,-0.100000)"
fill="#000000" stroke="none">
<path d="M141 1174 c-34 -14 -63 -67 -56 -102 2 -11 38 -80 81 -153 125 -218
134 -237 130 -297 -3 -32 -13 -68 -29 -94 -14 -24 -36 -63 -50 -88 -14 -25
-48 -85 -77 -135 -28 -49 -53 -101 -55 -115 -4 -38 22 -80 61 -96 31 -13 38
-13 77 6 23 11 58 30 77 42 19 11 49 28 65 37 17 9 67 38 112 65 l82 49 -37
19 c-48 25 -104 83 -130 134 -21 41 -39 121 -36 162 1 12 2 32 3 44 2 34 12
14 17 -34 16 -140 46 -171 347 -343 325 -186 342 -195 369 -187 38 11 64 35
75 69 10 26 8 38 -10 75 -11 23 -24 45 -28 48 -3 3 -9 15 -13 28 -4 12 -12 22
-17 22 -5 0 -9 5 -9 10 0 6 -36 73 -79 148 -44 76 -91 160 -107 187 -90 163
-151 213 -264 218 -28 1 -44 5 -36 9 7 4 44 6 82 4 108 -5 199 -60 261 -160
l25 -38 12 23 c19 35 50 90 121 214 80 139 83 153 39 204 -43 52 -72 45 -257
-63 -142 -82 -237 -131 -244 -125 -2 1 -22 5 -46 10 -26 5 -110 47 -213 107
-93 54 -179 101 -190 104 -12 3 -35 -1 -53 -8z m63 -60 c32 -31 6 -71 -39 -60
-30 8 -35 49 -7 65 23 14 28 14 46 -5z m900 -3 c23 -25 6 -61 -28 -61 -36 0
-47 37 -20 64 20 21 27 20 48 -3z m-397 -399 c21 -21 33 -42 33 -60 -1 -23 -2
-25 -13 -11 -30 40 -82 46 -118 13 -34 -30 -26 -107 12 -119 11 -4 17 -10 14
-15 -3 -5 -18 -4 -33 1 -79 29 -111 109 -68 172 45 66 118 74 173 19z m-503
-505 c21 -15 15 -51 -10 -61 -38 -15 -70 34 -42 62 16 16 30 15 52 -1z m904
-3 c12 -21 4 -51 -15 -58 -21 -8 -53 11 -53 32 0 39 50 57 68 26z"/>
</g>
</svg>
